<?xml version="1.0" encoding="UTF-8"?>
<svg width="88px" height="21px" viewBox="0 0 88 21" version="1.1" xmlns="http://www.w3.org/2000/svg" xmlns:xlink="http://www.w3.org/1999/xlink">
    <title>畫板</title>
    <defs>
        <polygon id="path-1" points="0 0 22.0821159 0 22.0821159 20.8876147 0 20.8876147"></polygon>
        <polygon id="path-3" points="0 20.888 83.307 20.888 83.307 0 0 0"></polygon>
    </defs>
    <g id="畫板" stroke="none" stroke-width="1" fill="none" fill-rule="evenodd">
        <g id="群組" transform="translate(2.000000, -0.000000)">
            <g transform="translate(0.000000, 0.000385)">
                <mask id="mask-2" fill="white">
                    <use xlink:href="#path-1"></use>
                </mask>
                <g id="Clip-2"></g>
                <path d="M16.5592,11.8433147 C16.1592,12.8433147 15.7592,13.2433147 13.4592,15.1443147 C11.1592,17.0433147 11.0592,17.6443147 11.0592,17.6443147 C11.0592,17.6443147 10.9592,17.4443147 10.4592,16.8433147 C9.8592,16.1443147 8.9592,15.4443147 8.3592,14.9443147 C8.2592,14.9443147 8.2592,14.8433147 8.1592,14.8433147 C7.8592,14.6443147 7.5592,14.3433147 7.3592,14.1443147 C6.8592,13.7433147 6.4592,13.2433147 6.0592,12.8433147 C5.7592,12.4443147 5.5592,12.1443147 5.3592,11.7433147 C5.2592,11.5433147 5.2592,11.4443147 5.1592,11.1433147 C5.0592,10.7433147 5.0592,10.3433147 5.0592,9.8433147 C5.1592,9.1433147 5.6592,8.1433147 6.9592,7.5443147 C7.1592,7.4443147 7.4592,7.3433147 7.6592,7.3433147 C9.2592,7.0443147 10.4592,7.9443147 10.5592,8.0443147 C9.6592,8.9443147 8.2592,10.6433147 8.2592,11.9443147 C8.2592,13.0433147 8.8592,13.9443147 9.7592,14.3433147 C10.1592,14.5433147 10.5592,14.6443147 10.9592,14.6443147 C12.3592,14.6443147 13.3592,13.6443147 13.4592,12.3433147 C13.4592,11.3433147 13.0592,10.3433147 12.4592,9.8433147 L12.7592,10.2433147 C13.0592,10.7433147 13.1592,11.1433147 13.1592,11.7433147 C13.0592,13.7433147 11.5592,13.7433147 10.3592,14.1443147 C10.6592,13.9443147 10.8592,13.8433147 10.9592,13.6443147 L10.9592,13.5433147 C11.0592,13.2433147 11.0592,13.0433147 11.0592,13.0433147 C10.9592,12.9443147 10.6592,13.0433147 10.5592,13.0433147 C10.3592,13.0433147 10.1592,13.0433147 10.0592,12.9443147 C9.7592,12.8433147 9.6592,12.6443147 9.6592,12.3433147 C9.6592,12.2433147 9.7592,12.1443147 9.7592,12.0433147 C9.7592,11.9443147 9.6592,11.9443147 9.6592,11.8433147 C9.6592,11.7433147 9.7592,11.6443147 9.7592,11.6443147 C9.7592,11.5433147 9.5592,11.5433147 9.6592,11.4443147 C9.6592,11.3433147 9.7592,11.3433147 9.7592,11.2433147 C9.7592,11.1433147 9.6592,11.1433147 9.6592,11.1433147 C9.5592,11.0443147 9.4592,10.9443147 9.4592,10.8433147 L9.4592,10.7433147 L9.5592,10.6433147 C9.5592,10.6433147 9.6592,10.6433147 9.6592,10.5443147 C9.8592,10.3433147 10.1592,10.1433147 10.2592,9.8433147 L10.2592,9.4443147 C10.2592,9.2433147 10.4592,8.3433147 11.5592,7.7433147 C11.7592,7.6433147 11.9592,7.5443147 12.2592,7.4443147 C13.3592,7.1433147 14.2592,7.1433147 15.0592,7.5443147 C17.4592,8.6433147 16.9592,10.8433147 16.5592,11.8433147 M21.6592,7.2433147 L16.8592,7.2433147 L15.9592,7.2433147 L15.3592,7.2433147 L15.1592,7.2433147 L15.1592,7.0443147 L15.1592,1.5443147 L15.1592,0.444314702 C15.1592,0.444314702 12.9592,1.2433147 11.4592,0.444314702 C9.3592,-0.656685298 7.2592,0.444314702 7.2592,2.0443147 L7.2592,6.4443147 L7.2592,7.1433147 L6.7592,7.1433147 L6.0592,7.1433147 L1.8592,7.1433147 C-0.0408,7.1433147 -0.4408,9.3433147 0.4592,10.9443147 C1.2592,12.3433147 0.4592,14.2433147 0.4592,14.2433147 L6.0592,14.2433147 L7.0592,14.2433147 L7.1592,14.2433147 L7.1592,14.8433147 L7.1592,20.4443147 C7.1592,20.4443147 9.3592,19.6443147 10.8592,20.4443147 C12.8592,21.4443147 15.0592,20.6443147 15.0592,19.1443147 L15.0592,14.3433147 L15.0592,14.2433147 L15.1592,14.2433147 L15.3592,14.2433147 L20.4592,14.2433147 C22.1592,14.1443147 22.4592,12.0433147 21.6592,10.5443147 C20.8592,9.1433147 21.6592,7.2433147 21.6592,7.2433147" id="Fill-1" fill="#129A92" mask="url(#mask-2)"></path>
            </g>
            <path d="M36.1403,10.4857 C36.0603,10.9257 35.9943,11.1517 35.9133,11.1517 C35.7813,11.1517 35.6743,10.9257 35.6213,10.4997 C35.5553,10.0737 35.5283,9.1037 35.5283,7.5597 L35.5283,3.9957 L26.7633,3.9957 L26.7633,5.0197 L34.3583,5.0197 L34.3583,7.5597 C34.3583,9.5817 34.4913,10.9117 34.7833,11.5767 C35.0493,12.2147 35.4613,12.5477 36.0203,12.5617 C36.2863,12.5617 36.5253,12.3607 36.7383,11.9887 C36.9383,11.6037 37.1243,10.8187 37.2973,9.6487 L36.2993,9.1697 C36.2463,9.6747 36.1933,10.1137 36.1403,10.4857" id="Fill-3" fill="#129A92"></path>
            <path d="M30.4869,9.3022 L31.1249,8.9302 C30.7789,8.5042 30.4339,8.1722 30.1019,7.9322 C30.4079,7.6402 30.7129,7.2812 31.0059,6.8552 L30.2869,6.5502 L32.2959,6.5502 C31.9899,7.0282 31.5909,7.4932 31.0989,7.9592 C31.5779,8.3582 32.0169,8.7972 32.4289,9.3022 L30.4869,9.3022 Z M28.1329,9.3022 L28.7839,8.9302 C28.4389,8.5042 28.1189,8.1722 27.7999,7.9192 C28.0929,7.6272 28.3859,7.2812 28.6779,6.8552 L27.9599,6.5502 L29.9019,6.5502 C29.5829,7.0282 29.1839,7.5072 28.6919,7.9722 C29.1709,8.3582 29.6089,8.7972 30.0219,9.3022 L28.1329,9.3022 Z M33.8519,5.5652 L26.3639,5.5652 L26.3639,6.5502 L27.5609,6.5502 C27.2549,7.0282 26.8689,7.4932 26.3909,7.9592 C26.8419,8.3582 27.2679,8.7972 27.6679,9.3022 L26.6959,9.3022 L26.6959,10.2872 L29.4499,10.2872 L29.4499,11.3242 L25.9109,11.3242 L25.9109,12.3352 L34.2109,12.3352 L34.2109,11.3242 L30.6599,11.3242 L30.6599,10.2872 L33.4399,10.2872 L33.4399,9.3022 L32.8949,9.3022 L33.5459,8.9172 C33.1879,8.5042 32.8409,8.1722 32.5079,7.9192 C32.8279,7.6272 33.1209,7.2812 33.4129,6.8552 L32.6949,6.5502 L33.8519,6.5502 L33.8519,5.5652 Z" id="Fill-5" fill="#129A92"></path>
            <path d="M27.4152,2.7851 L27.4152,3.4101 L35.3422,3.4101 L35.3422,2.4791 L27.6542,2.4791 C27.7872,2.2931 27.9202,2.1071 28.0532,1.9071 L36.4862,1.9071 L36.4862,0.8691 L28.5842,0.8691 C28.6382,0.7101 28.7052,0.5501 28.7582,0.3911 L27.5352,0.2311 C27.0822,1.4551 26.2302,2.4791 24.9672,3.3301 L25.7262,4.3141 C26.3772,3.8621 26.9362,3.3431 27.4152,2.7851" id="Fill-7" fill="#129A92"></path>
            <path d="M51.7286,1.3217 L51.1436,0.3107 C48.4036,0.6697 45.0516,0.8567 41.0876,0.8567 L41.4476,1.9207 C45.7166,1.9207 49.1486,1.7207 51.7286,1.3217" id="Fill-9" fill="#129A92"></path>
            <path d="M44.6398,8.9433 L48.6838,8.9433 C48.1778,9.3423 47.5128,9.7143 46.7018,10.0473 C45.9828,9.7283 45.2908,9.3693 44.6398,8.9433 L44.6398,8.9433 Z M52.5538,11.3513 C50.9838,11.2713 49.5218,11.0183 48.1638,10.5933 C49.1218,10.0873 49.8398,9.5023 50.3318,8.8373 L50.3318,7.9463 L45.4918,7.9463 C45.7038,7.7193 45.8898,7.4933 46.0628,7.2543 L47.9388,7.2543 C48.3908,7.2543 48.7368,7.1883 48.9618,7.0543 C49.2018,6.9083 49.3738,6.4693 49.4538,5.7373 L48.2968,5.3653 C48.2578,5.7913 48.1908,6.0573 48.0978,6.1373 C48.0178,6.2033 47.8848,6.2433 47.7118,6.2433 L45.4378,6.2433 C45.2108,6.2433 45.1048,6.0963 45.1048,5.8313 L45.1048,4.5673 L43.8808,4.5673 L43.8808,6.0963 C43.8808,6.7223 44.1478,7.0943 44.7058,7.2143 C44.3998,7.5333 44.0148,7.8533 43.5628,8.1593 C43.2958,7.9463 43.0438,7.7333 42.8038,7.4933 L41.9128,8.1053 C42.1128,8.3183 42.3258,8.5183 42.5648,8.7303 C42.1128,8.9693 41.5938,9.1953 41.0088,9.4083 L41.7528,10.4063 C42.3778,10.1273 42.9638,9.8343 43.5088,9.5153 C44.0148,9.9013 44.5468,10.2463 45.1188,10.5663 C43.7878,10.9253 42.1928,11.2043 40.3298,11.4043 L40.7958,12.6003 C43.1098,12.2813 45.0518,11.8423 46.5948,11.2843 C48.2708,12.0023 50.1458,12.4273 52.2468,12.5613 L52.5538,11.3513 Z" id="Fill-11" fill="#129A92"></path>
            <path d="M41.9928,4.1684 L46.3018,4.1684 L45.5568,4.8864 C46.1688,5.2994 46.6338,5.6844 46.9808,6.0434 L47.7648,5.2454 C47.3928,4.8864 46.9138,4.5274 46.3418,4.1684 L50.8768,4.1684 L50.8768,5.3654 C50.6778,5.1264 50.4518,4.8734 50.1998,4.5934 L49.2818,5.1794 C49.9738,6.0574 50.5188,6.8414 50.9308,7.5604 L51.9818,6.8154 C51.7288,6.4294 51.3968,5.9904 50.9968,5.5124 L52.0878,5.5124 L52.0878,3.0514 L50.1068,3.0514 C50.3058,2.7454 50.4928,2.4134 50.6638,2.0534 L49.4538,1.6274 C49.2418,2.1204 49.0158,2.5984 48.7628,3.0514 L47.1268,3.0514 C46.9938,2.6524 46.8608,2.2934 46.7278,1.9734 L45.5038,2.1594 C45.6368,2.4264 45.7568,2.7324 45.8758,3.0514 L43.9208,3.0514 C43.8018,2.7054 43.6818,2.3724 43.5758,2.0804 L42.3388,2.2524 C42.4448,2.4924 42.5648,2.7584 42.6708,3.0514 L40.7818,3.0514 L40.7818,5.5124 L41.9928,5.5124 L41.9928,4.1684 Z" id="Fill-13" fill="#129A92"></path>
            <path d="M40.9288,6.789 L41.8328,7.586 C42.5118,7.015 43.0568,6.203 43.4828,5.152 L42.4318,4.726 C42.0988,5.591 41.5938,6.283 40.9288,6.789" id="Fill-15" fill="#129A92"></path>
            <path d="M63.5001,9.6083 C63.5001,9.3423 63.4731,9.0893 63.4461,8.8373 C64.4041,9.9813 65.6551,10.9523 67.1851,11.7763 L67.8491,10.6463 C66.1731,9.8473 64.8161,8.8903 63.7791,7.7593 C64.9091,7.3073 65.9211,6.6693 66.8241,5.8713 L65.9471,5.0193 C64.9901,5.8843 63.9791,6.5223 62.9151,6.9483 C62.6491,6.3633 62.2761,5.8043 61.8111,5.2993 C62.1031,5.1123 62.4081,4.9133 62.7291,4.7003 L65.6821,4.7003 L65.6821,3.5293 L57.7811,3.5293 L57.7811,4.7003 L60.7611,4.7003 C60.4671,4.8473 60.1621,4.9803 59.8421,5.1123 C58.7781,5.5513 57.6351,5.8973 56.4101,6.1503 L57.0491,7.2013 C58.6191,6.7353 59.8421,6.2963 60.7061,5.8843 C60.7481,5.8573 60.7871,5.8443 60.8401,5.8173 C60.9741,5.9773 61.0931,6.1373 61.2261,6.3223 C60.0281,7.1743 58.3391,7.8793 56.1581,8.4383 L56.7831,9.5293 C58.8461,8.9303 60.5071,8.1723 61.7571,7.2403 C61.8631,7.4803 61.9701,7.7463 62.0501,8.0123 C60.6011,9.1563 58.5781,10.1003 55.9851,10.8323 L56.6101,11.9103 C58.9381,11.1913 60.8271,10.3003 62.2631,9.2233 C62.2631,9.3423 62.2761,9.4753 62.2761,9.6083 C62.2761,10.3533 62.1561,10.8453 61.9431,11.1113 C61.7571,11.2973 61.2921,11.4043 60.5481,11.4173 L59.8701,11.4173 L60.2961,12.5213 L60.7211,12.5213 C61.9301,12.5213 62.7021,12.2813 63.0471,11.8163 C63.3401,11.4173 63.5001,10.6853 63.5001,9.6083" id="Fill-17" fill="#129A92"></path>
            <path d="M57.2882,2.5063 L66.1732,2.5063 L66.1732,3.8093 L67.4362,3.8093 L67.4362,1.3353 L62.4492,1.3353 C62.3152,0.9093 62.1832,0.5373 62.0372,0.1913 L60.7342,0.4043 C60.8922,0.6833 61.0402,0.9893 61.1732,1.3353 L56.0242,1.3353 L56.0242,3.8093 L57.2882,3.8093 L57.2882,2.5063 Z" id="Fill-19" fill="#129A92"></path>
            <path d="M82.4142,12.4804 L83.2522,11.3774 C80.2192,9.5154 78.3042,6.8154 77.5332,3.2774 C77.5862,2.4524 77.6252,1.4684 77.6252,0.2974 L76.3492,0.2974 C76.3492,0.8034 76.3352,1.4954 76.3352,2.3854 C76.2282,6.2034 74.3802,9.1954 70.7892,11.3774 L71.5602,12.5084 C74.3532,10.6984 76.1882,8.4114 77.0662,5.6454 C78.0772,8.4914 79.8602,10.7784 82.4142,12.4804" id="Fill-21" fill="#129A92"></path>
            <polygon id="Fill-23" fill="#129A92" points="28.0402 17.9735 26.0602 17.9735 26.0602 16.4095 25.5562 16.4095 25.5562 20.2185 26.0602 20.2185 26.0602 18.4225 28.0402 18.4225 28.0402 20.2185 28.5442 20.2185 28.5442 16.4095 28.0402 16.4095"></polygon>
            <path d="M31.6891,17.5282 C31.5261,17.7782 31.3871,18.0032 31.2721,18.2022 C31.1531,17.9862 31.0241,17.7722 30.8851,17.5572 L30.1341,16.4092 L29.5211,16.4092 L30.9891,18.6042 L30.9891,20.2182 L31.4941,20.2182 L31.4941,18.6042 L33.0141,16.4092 L32.4261,16.4092 L31.6891,17.5282 Z" id="Fill-25" fill="#129A92"></path>
            <path d="M36.5284,19.0194 C36.4624,19.2204 36.3684,19.3814 36.2494,19.5004 C36.1644,19.5854 36.0494,19.6524 35.9074,19.6994 C35.7644,19.7454 35.5674,19.7684 35.3164,19.7684 L34.5034,19.7684 L34.5034,16.8574 L35.3024,16.8574 C35.6034,16.8574 35.8204,16.8834 35.9554,16.9354 C36.1424,17.0084 36.3014,17.1524 36.4324,17.3654 C36.5634,17.5804 36.6284,17.8864 36.6284,18.2844 C36.6284,18.5724 36.5954,18.8174 36.5284,19.0194 M36.5484,16.7364 C36.3934,16.6034 36.2084,16.5124 35.9894,16.4624 C35.8334,16.4264 35.6074,16.4094 35.3114,16.4094 L33.9994,16.4094 L33.9994,20.2184 L35.3734,20.2184 C35.6044,20.2184 35.8074,20.1974 35.9854,20.1524 C36.1634,20.1104 36.3144,20.0464 36.4404,19.9614 C36.5664,19.8774 36.6814,19.7634 36.7864,19.6174 C36.8924,19.4704 36.9794,19.2854 37.0474,19.0624 C37.1144,18.8384 37.1484,18.5824 37.1484,18.2924 C37.1484,17.9534 37.0984,17.6514 36.9994,17.3874 C36.8994,17.1234 36.7484,16.9064 36.5484,16.7364" id="Fill-27" fill="#129A92"></path>
            <path d="M39.9694,18.0907 L38.8864,18.0907 L38.8864,16.8297 L40.0914,16.8297 C40.3744,16.8297 40.5804,16.8867 40.7114,17.0027 C40.8424,17.1197 40.9074,17.2677 40.9074,17.4477 C40.9074,17.5707 40.8734,17.6857 40.8064,17.7897 C40.7394,17.8937 40.6404,17.9707 40.5104,18.0187 C40.3804,18.0657 40.1994,18.0907 39.9694,18.0907 M40.6574,18.6747 C40.5894,18.6117 40.4884,18.5487 40.3544,18.4857 C40.7194,18.4347 40.9904,18.3167 41.1654,18.1317 C41.3394,17.9467 41.4274,17.7177 41.4274,17.4477 C41.4274,17.2377 41.3754,17.0467 41.2694,16.8737 C41.1634,16.7007 41.0224,16.5797 40.8444,16.5117 C40.6694,16.4427 40.4104,16.4087 40.0714,16.4087 L38.3814,16.4087 L38.3814,20.2187 L38.8864,20.2187 L38.8864,18.5267 L39.4704,18.5267 C39.6004,18.5267 39.6944,18.5317 39.7514,18.5437 C39.8294,18.5637 39.9064,18.5967 39.9814,18.6457 C40.0564,18.6947 40.1424,18.7787 40.2374,18.9007 C40.3324,19.0227 40.4534,19.1967 40.6004,19.4267 L41.1054,20.2187 L41.7404,20.2187 L41.0764,19.1817 C40.9454,18.9787 40.8054,18.8097 40.6574,18.6747" id="Fill-29" fill="#129A92"></path>
            <path d="M45.3527,19.4511 C45.1077,19.7191 44.7947,19.8511 44.4157,19.8511 C44.0427,19.8511 43.7337,19.7201 43.4867,19.4561 C43.2397,19.1911 43.1167,18.8301 43.1167,18.3711 C43.1167,17.7971 43.2457,17.3881 43.5017,17.1421 C43.7587,16.8971 44.0667,16.7751 44.4227,16.7751 C44.6737,16.7751 44.9017,16.8391 45.1027,16.9671 C45.3047,17.0941 45.4577,17.2731 45.5627,17.5041 C45.6677,17.7351 45.7197,18.0061 45.7197,18.3161 C45.7197,18.8061 45.5977,19.1851 45.3527,19.4511 M45.3727,16.5941 C45.0897,16.4251 44.7727,16.3411 44.4207,16.3411 C43.8837,16.3411 43.4457,16.5201 43.1057,16.8781 C42.7667,17.2351 42.5967,17.7311 42.5967,18.3621 C42.5967,18.6971 42.6687,19.0141 42.8147,19.3141 C42.9597,19.6141 43.1737,19.8501 43.4567,20.0231 C43.7397,20.1971 44.0597,20.2831 44.4177,20.2831 C44.7487,20.2831 45.0577,20.2061 45.3437,20.0491 C45.6287,19.8911 45.8497,19.6611 46.0057,19.3551 C46.1627,19.0511 46.2407,18.7061 46.2407,18.3181 C46.2407,17.9381 46.1657,17.5961 46.0177,17.2971 C45.8697,16.9961 45.6547,16.7611 45.3727,16.5941" id="Fill-31" fill="#129A92"></path>
            <path d="M49.2052,18.7245 L50.3252,18.7245 L50.3252,19.4335 C50.2182,19.5295 50.0592,19.6185 49.8522,19.7025 C49.6432,19.7865 49.4312,19.8285 49.2132,19.8285 C48.9612,19.8285 48.7252,19.7725 48.5002,19.6615 C48.2772,19.5505 48.1072,19.3815 47.9892,19.1535 C47.8732,18.9245 47.8142,18.6395 47.8142,18.3005 C47.8142,18.0245 47.8622,17.7695 47.9602,17.5345 C48.0172,17.3965 48.0982,17.2715 48.2002,17.1575 C48.3042,17.0425 48.4382,16.9505 48.6062,16.8795 C48.7742,16.8105 48.9752,16.7755 49.2052,16.7755 C49.3972,16.7755 49.5722,16.8075 49.7292,16.8745 C49.8882,16.9415 50.0092,17.0315 50.0942,17.1405 C50.1792,17.2525 50.2502,17.4055 50.3072,17.5985 L50.7622,17.4745 C50.6952,17.2175 50.6002,17.0105 50.4732,16.8505 C50.3472,16.6905 50.1722,16.5675 49.9492,16.4775 C49.7262,16.3875 49.4772,16.3435 49.2022,16.3435 C48.8222,16.3435 48.4872,16.4215 48.1962,16.5775 C47.9052,16.7335 47.6832,16.9725 47.5272,17.2935 C47.3722,17.6155 47.2952,17.9615 47.2952,18.3305 C47.2952,18.7055 47.3722,19.0445 47.5292,19.3485 C47.6842,19.6505 47.9162,19.8825 48.2212,20.0425 C48.5262,20.2035 48.8672,20.2835 49.2412,20.2835 C49.5182,20.2835 49.7882,20.2335 50.0522,20.1335 C50.3152,20.0345 50.5702,19.8855 50.8182,19.6895 L50.8182,18.2745 L49.2052,18.2775 L49.2052,18.7245 Z" id="Fill-33" fill="#129A92"></path>
            <polygon id="Fill-35" fill="#129A92" points="52.6095 18.4726 54.7165 18.4726 54.7165 18.0246 52.6095 18.0246 52.6095 16.8576 54.8605 16.8576 54.8605 16.4096 52.1055 16.4096 52.1055 20.2186 54.9485 20.2186 54.9485 19.7686 52.6095 19.7686"></polygon>
            <polygon id="Fill-37" fill="#129A92" points="58.6896 19.3993 56.6886 16.4093 56.1706 16.4093 56.1706 20.2183 56.6556 20.2183 56.6556 17.2243 58.6556 20.2183 59.1716 20.2183 59.1716 16.4093 58.6896 16.4093"></polygon>
            <polygon id="Fill-39" fill="#129A92" points="62.589 20.2187 63.094 20.2187 63.094 18.4877 64.881 18.4877 64.881 18.0377 63.094 18.0377 63.094 16.8577 65.16 16.8577 65.16 16.4087 62.589 16.4087"></polygon>
            <path d="M66.7335,18.6542 L67.1515,17.5362 C67.2405,17.2952 67.3085,17.0522 67.3575,16.8092 C67.4165,17.0142 67.5055,17.2792 67.6275,17.5982 L68.0255,18.6542 L66.7335,18.6542 Z M67.0975,16.4092 L65.6335,20.2182 L66.1695,20.2182 L66.5875,19.0652 L68.1805,19.0652 L68.6255,20.2182 L69.1995,20.2182 L67.6405,16.4092 L67.0975,16.4092 Z" id="Fill-41" fill="#129A92"></path>
            <path d="M72.1652,19.0595 C72.0732,19.3285 72.0062,19.5325 71.9632,19.6695 C71.9252,19.5445 71.8632,19.3575 71.7812,19.1065 L70.8782,16.4095 L70.1192,16.4095 L70.1192,20.2185 L70.6052,20.2185 L70.6052,16.9755 L71.7082,20.2185 L72.1622,20.2185 L73.2692,17.0295 L73.2692,20.2185 L73.7552,20.2185 L73.7552,16.4095 L73.0772,16.4095 L72.1652,19.0595 Z" id="Fill-43" fill="#129A92"></path>
            <mask id="mask-4" fill="white">
                <use xlink:href="#path-3"></use>
            </mask>
            <g id="Clip-46"></g>
            <polygon id="Fill-45" fill="#129A92" mask="url(#mask-4)" points="75.186 20.219 75.691 20.219 75.691 16.409 75.186 16.409"></polygon>
            <polygon id="Fill-47" fill="#129A92" mask="url(#mask-4)" points="77.5948 16.4091 77.0908 16.4091 77.0908 20.2191 79.4718 20.2191 79.4718 19.7681 77.5948 19.7681"></polygon>
            <path d="M82.7198,16.4091 L81.9818,17.5281 C81.8188,17.7781 81.6808,18.0031 81.5668,18.2021 C81.4478,17.9861 81.3188,17.7721 81.1788,17.5571 L80.4288,16.4091 L79.8158,16.4091 L81.2828,18.6041 L81.2828,20.2191 L81.7878,20.2191 L81.7878,18.6041 L83.3068,16.4091 L82.7198,16.4091 Z" id="Fill-48" fill="#129A92" mask="url(#mask-4)"></path>
        </g>
    </g>
</svg>