<?xml version="1.0" encoding="UTF-8"?>
<svg width="76px" height="23px" viewBox="0 0 76 23" version="1.1" xmlns="http://www.w3.org/2000/svg" xmlns:xlink="http://www.w3.org/1999/xlink">
    <!-- Generator: Sketch 55.2 (78181) - https://sketchapp.com -->
    <title>heme</title>
    <desc>Created with Sketch.</desc>
    <g id="symbol" stroke="none" stroke-width="1" fill="none" fill-rule="evenodd">
        <g id="Header/-B-1" transform="translate(-682.000000, -22.000000)" fill="#3E3E3E" fill-rule="nonzero">
            <path d="M682.8,22.16 L686.22,22.16 L686.22,30.56 C686.79,29.69 687.51,29.06 688.35,28.64 C689.1,28.25 689.97,28.07 690.96,28.07 C692.85,28.07 694.26,28.61 695.19,29.72 C696.06,30.77 696.51,32.33 696.51,34.4 L696.51,44 L693.09,44 L693.09,35 C693.09,33.68 692.82,32.66 692.31,31.97 C691.71,31.22 690.84,30.86 689.67,30.86 C688.59,30.86 687.75,31.28 687.15,32.12 C686.52,32.96 686.22,34.01 686.22,35.33 L686.22,44 L682.8,44 L682.8,22.16 Z M706.71,28.07 C709.26,28.07 711.21,28.91 712.56,30.65 C713.79,32.21 714.42,34.4 714.42,37.19 L702.81,37.19 C702.93,38.63 703.32,39.74 703.98,40.49 C704.64,41.24 705.6,41.63 706.83,41.63 C707.88,41.63 708.72,41.39 709.38,40.91 C709.89,40.52 710.34,39.89 710.76,39.02 L714.18,39.02 C713.82,40.46 713.1,41.69 712.02,42.65 C710.64,43.82 708.93,44.42 706.86,44.42 C704.55,44.42 702.72,43.7 701.37,42.29 C699.93,40.82 699.21,38.81 699.21,36.23 C699.21,33.92 699.87,32 701.25,30.44 C702.57,28.85 704.4,28.07 706.71,28.07 Z M706.8,30.86 C705.66,30.86 704.79,31.16 704.13,31.82 C703.5,32.45 703.08,33.38 702.87,34.61 L710.85,34.61 C710.55,32.09 709.2,30.86 706.8,30.86 Z M724.74,28.07 C727.02,28.07 728.64,28.91 729.63,30.59 C730.35,29.63 731.1,28.97 731.88,28.61 C732.57,28.25 733.44,28.07 734.49,28.07 C736.08,28.07 737.4,28.58 738.48,29.66 C739.5,30.74 740.04,32.12 740.04,33.83 L740.04,44 L736.62,44 L736.62,34.43 C736.62,33.2 736.35,32.3 735.84,31.76 C735.3,31.19 734.46,30.92 733.26,30.92 C732.42,30.92 731.73,31.22 731.16,31.88 C730.56,32.51 730.29,33.38 730.29,34.52 L730.29,44 L726.87,44 L726.87,34.46 C726.87,32.09 725.85,30.92 723.81,30.92 C722.82,30.92 722.04,31.28 721.44,32.06 C720.84,32.78 720.54,33.68 720.54,34.7 L720.54,44 L717.12,44 L717.12,28.49 L720.54,28.49 L720.54,30.08 C721.83,28.73 723.24,28.07 724.74,28.07 Z M750.24,28.07 C752.79,28.07 754.74,28.91 756.09,30.65 C757.32,32.21 757.95,34.4 757.95,37.19 L746.34,37.19 C746.46,38.63 746.85,39.74 747.51,40.49 C748.17,41.24 749.13,41.63 750.36,41.63 C751.41,41.63 752.25,41.39 752.91,40.91 C753.42,40.52 753.87,39.89 754.29,39.02 L757.71,39.02 C757.35,40.46 756.63,41.69 755.55,42.65 C754.17,43.82 752.46,44.42 750.39,44.42 C748.08,44.42 746.25,43.7 744.9,42.29 C743.46,40.82 742.74,38.81 742.74,36.23 C742.74,33.92 743.4,32 744.78,30.44 C746.1,28.85 747.93,28.07 750.24,28.07 Z M750.33,30.86 C749.19,30.86 748.32,31.16 747.66,31.82 C747.03,32.45 746.61,33.38 746.4,34.61 L754.38,34.61 C754.08,32.09 752.73,30.86 750.33,30.86 Z" id="heme"></path>
        </g>
    </g>
</svg>